# xmcd
#
# Track frame offsets:
#	150
#	18980
#	44120
#	69240
#	91925
#
# Disc length: 1565 seconds
#
# Revision: 3
# Processed by: cddbd v1.4PL0 Copyright (c) Steve Scherf et al.
# Submitted via: audiograbber 1.82.02
#
DISCID=39061b05
DTITLE=Melodie MC - Climb Any Mountain [CD-Single)
DYEAR=1995
DGENRE=Dance
TTITLE0=Climb Any Mountain (Radio Version)
TTITLE1=Climb Any Mountain (12" Inc Edit)
TTITLE2=Climb Any Mountain (Statikks Version)
TTITLE3=Climb Any Mountain (Pierre J'S Master Edit)
TTITLE4=Climb Any Mountain (Album Version)
EXTD=
EXTT0=feat Nena
EXTT1=
EXTT2=feat. Nena
EXTT3=Statikks Version
EXTT4=05:02
PLAYORDER=
